<svg width="433" height="473" viewBox="0 0 433 473" fill="none" xmlns="http://www.w3.org/2000/svg">
	<path fill-rule="evenodd" clip-rule="evenodd" d="M218.5 0C215.141 0 213 6 213 6L211.873 8.98236L211.858 9.02236L178.031 98.5287C177.927 98.7579 177.838 98.9947 177.763 99.2381L156.5 155.5L176.482 203.606L183.5 220.5L189.285 203.145L199.5 172.5H232.5L244.246 203.823L250.5 220.5L257.115 203.963L276.5 155.5L223.5 6C223.5 6 221.859 0 218.5 0ZM187.658 107L183.501 118H250.474L246.574 107H187.658ZM174.808 141L178.965 130H254.728L258.628 141H174.808ZM170.273 153L169.407 155.291L182.267 186.251L188.116 168.705C189.749 163.805 194.335 160.5 199.5 160.5H232.5C237.502 160.5 241.98 163.603 243.736 168.287L250.861 187.287L263.678 155.245L262.882 153H170.273ZM242.32 95L218.058 26.5616L192.193 95H242.32ZM224.648 9.39331C224.648 9.39399 224.639 9.40872 224.619 9.43556C224.638 9.40606 224.648 9.39264 224.648 9.39331Z" fill="white" />
	<path d="M12.96 432.5V296.24H29.7V432.5H12.96ZM55.6748 432.5V335.48H72.4148V432.5H55.6748ZM55.6748 320V298.4H72.4148V320H55.6748ZM98.3897 432.5V335.48H114.77V354.38L112.07 352.76C114.47 346.64 118.31 341.9 123.59 338.54C128.99 335.06 135.29 333.32 142.49 333.32C149.45 333.32 155.63 334.88 161.03 338C166.55 341.12 170.87 345.44 173.99 350.96C177.23 356.48 178.85 362.72 178.85 369.68V432.5H161.93V375.08C161.93 369.68 160.97 365.12 159.05 361.4C157.13 357.68 154.37 354.8 150.77 352.76C147.29 350.6 143.27 349.52 138.71 349.52C134.15 349.52 130.07 350.6 126.47 352.76C122.99 354.8 120.23 357.74 118.19 361.58C116.15 365.3 115.13 369.8 115.13 375.08V432.5H98.3897ZM202.804 432.5V296.24H219.544V389.66L212.704 388.04L264.184 335.48H285.604L248.344 374.54L288.124 432.5H268.324L231.964 379.94L242.404 379.4L214.144 408.92L219.544 396.68V432.5H202.804ZM303.175 432.5V296.24H319.915V432.5H303.175ZM351.11 472.1C348.95 472.1 346.79 471.92 344.63 471.56C342.47 471.32 340.43 470.78 338.51 469.94V455C339.83 455.12 341.45 455.36 343.37 455.72C345.41 456.08 347.39 456.26 349.31 456.26C354.95 456.26 359.21 455 362.09 452.48C365.09 449.96 367.91 445.7 370.55 439.7L376.67 425.12L376.31 439.7L334.91 335.48H353.09L385.31 418.28H379.91L411.95 335.48H430.49L386.75 444.02C384.71 449.18 382.07 453.92 378.83 458.24C375.71 462.56 371.87 465.92 367.31 468.32C362.75 470.84 357.35 472.1 351.11 472.1Z" fill="white" />
</svg>
