<svg width="120" height="221" viewBox="0 0 120 221" fill="none" xmlns="http://www.w3.org/2000/svg">
	<path fill-rule="evenodd" clip-rule="evenodd" d="M62 0C58.6406 0 56.5 6 56.5 6L55.3729 8.98236L55.3578 9.02236L21.5309 98.5287C21.4272 98.7579 21.3375 98.9947 21.2628 99.2381L0 155.5L19.9823 203.606L27 220.5L32.785 203.145L43 172.5H76L87.7463 203.823L94 220.5L100.615 203.963L120 155.5L67 6C67 6 65.3594 0 62 0ZM31.1578 107L27.0006 118H93.9739L90.0742 107H31.1578ZM18.3083 141L22.4655 130H98.2281L102.128 141H18.3083ZM13.7732 153L12.9073 155.291L25.7674 186.251L31.6158 168.705C33.2492 163.805 37.8348 160.5 43 160.5H76C81.0021 160.5 85.4796 163.603 87.2359 168.287L94.361 187.287L107.178 155.245L106.382 153H13.7732ZM85.8201 95L61.5576 26.5616L35.6929 95H85.8201ZM68.1478 9.39331C68.148 9.39399 68.1385 9.40872 68.1186 9.43556C68.1377 9.40606 68.1476 9.39264 68.1478 9.39331Z" fill="white" />
</svg>
