<svg width="578" height="227" viewBox="0 0 578 227" fill="none" xmlns="http://www.w3.org/2000/svg">
	<path fill-rule="evenodd" clip-rule="evenodd" d="M62 3.25C58.6406 3.25 56.5 9.25 56.5 9.25L55.3729 12.2324L55.3578 12.2724L21.5309 101.779C21.4272 102.008 21.3375 102.245 21.2628 102.488L0 158.75L19.9823 206.856L27 223.75L32.785 206.395L43 175.75H76L87.7463 207.073L94 223.75L100.615 207.213L120 158.75L67 9.25C67 9.25 65.3594 3.25 62 3.25ZM31.1578 110.25L27.0006 121.25H93.9739L90.0742 110.25H31.1578ZM18.3083 144.25L22.4655 133.25H98.2281L102.128 144.25H18.3083ZM13.7732 156.25L12.9073 158.541L25.7674 189.501L31.6158 171.955C33.2492 167.055 37.8348 163.75 43 163.75H76C81.0021 163.75 85.4796 166.853 87.2359 171.537L94.361 190.537L107.178 158.495L106.382 156.25H13.7732ZM85.8201 98.25L61.5576 29.8116L35.6929 98.25H85.8201ZM68.1478 12.6433C68.148 12.644 68.1385 12.6587 68.1186 12.6856C68.1377 12.6561 68.1476 12.6426 68.1478 12.6433Z" fill="#324A83" />
	<path d="M157.96 187V50.74H174.7V187H157.96ZM200.675 187V89.98H217.415V187H200.675ZM200.675 74.5V52.9H217.415V74.5H200.675ZM243.39 187V89.98H259.77V108.88L257.07 107.26C259.47 101.14 263.31 96.4 268.59 93.04C273.99 89.56 280.29 87.82 287.49 87.82C294.45 87.82 300.63 89.38 306.03 92.5C311.55 95.62 315.87 99.94 318.99 105.46C322.23 110.98 323.85 117.22 323.85 124.18V187H306.93V129.58C306.93 124.18 305.97 119.62 304.05 115.9C302.13 112.18 299.37 109.3 295.77 107.26C292.29 105.1 288.27 104.02 283.71 104.02C279.15 104.02 275.07 105.1 271.47 107.26C267.99 109.3 265.23 112.24 263.19 116.08C261.15 119.8 260.13 124.3 260.13 129.58V187H243.39ZM347.804 187V50.74H364.544V144.16L357.704 142.54L409.184 89.98H430.604L393.344 129.04L433.124 187H413.324L376.964 134.44L387.404 133.9L359.144 163.42L364.544 151.18V187H347.804ZM448.175 187V50.74H464.915V187H448.175ZM496.11 226.6C493.95 226.6 491.79 226.42 489.63 226.06C487.47 225.82 485.43 225.28 483.51 224.44V209.5C484.83 209.62 486.45 209.86 488.37 210.22C490.41 210.58 492.39 210.76 494.31 210.76C499.95 210.76 504.21 209.5 507.09 206.98C510.09 204.46 512.91 200.2 515.55 194.2L521.67 179.62L521.31 194.2L479.91 89.98H498.09L530.31 172.78H524.91L556.95 89.98H575.49L531.75 198.52C529.71 203.68 527.07 208.42 523.83 212.74C520.71 217.06 516.87 220.42 512.31 222.82C507.75 225.34 502.35 226.6 496.11 226.6Z" fill="#324A83" />
</svg>
