<svg width="109" height="63" viewBox="0 0 109 63" fill="none" xmlns="http://www.w3.org/2000/svg">
<path d="M12.5312 39.2812L12.5 0.96875L2.71875 5.125C2.71875 5.125 5.5 5.125 5.5 11.4688C5.5 25.9688 5.5 39.1875 5.5 39.1875C5.5 46.9062 0.875 50 0.875 50H17.0625C17.0625 50 12.5312 46.9375 12.5312 39.2812ZM22.4688 39.2812V26.5938C22.4688 19.2188 22.4375 16.1562 22.4375 16.1562L12.6562 20.2812C12.6562 20.2812 15.4375 20.3125 15.4375 26.625C15.4375 36.5312 15.4375 38.75 15.4375 39.1875C15.4375 46.9062 10.8125 50 10.8125 50H27C27 50 22.4688 46.9375 22.4688 39.2812ZM18.1875 14.8125C20.6562 14.8125 22.6875 12 22.6875 8.5625C22.6875 5.125 20.6562 2.34375 18.1875 2.34375C15.7188 2.34375 13.6875 5.125 13.6875 8.5625C13.6875 12 15.7188 14.8125 18.1875 14.8125ZM38.6562 50H54.8438C54.8438 50 50.3125 46.9375 50.3125 39.2812C50.3125 39.2812 50.3125 39.2812 50.3125 24.625C50.3125 13.9688 40.4375 14.1562 40.4375 14.1562C38.375 14.1562 34.25 14.4375 32.375 18.75C32.375 15.5625 32.375 14.1562 32.375 14.1562L22.5938 18.3125C22.5938 18.3125 25.375 18.3438 25.375 24.6562C25.375 39.1875 25.375 39.1875 25.375 39.1875C25.375 46.9062 20.75 50 20.75 50H36.9375C36.9375 50 32.375 46.9375 32.375 39.2812V25.3438H32.4062C32.4062 20.3125 34.3438 16.4062 38.375 16.5C41.0938 16.5625 43.3438 18.625 43.2812 24.6562C43.1875 39.1875 43.2812 39.1875 43.2812 39.1875C43.2812 46.9062 38.6562 50 38.6562 50ZM72.0312 39.2812L66.4688 32.3438L75.4375 21.9375C81.7812 14.5625 85.1875 14.1562 85.1875 14.1562H71.125C71.125 14.1562 75.875 16.9375 69.5 24.3438L60.2812 36.0312V11.4062C60.2812 4.03125 60.25 0.96875 60.25 0.96875L50.4688 5.125C50.4688 5.125 53.25 5.125 53.25 11.4688C53.25 25.9688 53.25 39.1875 53.25 39.1875C53.25 46.9062 48.625 50 48.625 50H64.8125C64.8125 50 60.375 47 60.2812 39.5312L62.8438 36.5625L64.9375 39.1875C71.125 46.9062 69 50 69 50H85.1562C85.1562 50 78.1562 46.9375 72.0312 39.2812ZM96.875 17.3125C96.875 17.3125 101.406 17.25 101.406 24.9062V38.8125C101.406 40.6875 100.531 47.625 95.4062 47.6562C92.7188 47.6875 90.4688 45.5312 90.5 39.5C90.5938 25 90.5625 14.1562 90.5625 14.1562L78.9375 17.3125C78.9375 17.3125 83.5 17.25 83.5 24.9062C83.5 24.9062 83.5 24.9062 83.5 39.5312C83.5 50.1875 93.3438 50 93.3438 50C95.4062 50 99.5312 49.75 101.406 45.4375V47.5938C101.406 57.0312 94.75 58.6562 88.4062 53.5938C88.0625 55 88.125 62.75 97.4375 62.75C105.219 62.75 108.406 57.5 108.406 50.375C108.406 35.8438 108.469 14.1562 108.469 14.1562L96.875 17.3125Z" fill="#001B5B"/>
</svg>